<?xml version="1.0" ?><svg enable-background="new 0 0 64 64" id="Layer_1" version="1.1" viewBox="0 0 64 64" xml:space="preserve" xmlns="http://www.w3.org/2000/svg" xmlns:xlink="http://www.w3.org/1999/xlink"><g><g><circle cx="32" cy="32" fill="#5BC4C5" r="30"/></g><g><g><g><path d="M32.3,15.7h0.5l0.8-2.5c0.5-1.2-0.3-2.7-1.9-2.7c-1.7,0-2.4,1.5-1.9,2.7l0.8,2.5H31H32.3z" fill="#141B18"/></g><g><polygon fill="#E8E5E6" points="41.2,15.7 32.8,15.7 32.3,15.7 31,15.7 30.5,15.7 21.8,15.7 20.6,19.2 42.4,19.2     "/></g></g><g><polygon fill="#CCCBC9" points="20.7,19.2 15.6,19.2 21.8,26.3    "/></g><g><g><path d="M47.5,19.6h-5.2L42,21.7h4.2l1.9,4.5c-0.4,1.2-1.8,4.7-3.2,7.1h-2.4v2.1h3.6l0.3-0.5      c1.7-2.9,3.7-8.1,3.7-8.3l0.1-0.4L47.5,19.6z" fill="#141B18"/></g><g><polygon fill="#E8E5E6" points="42.4,19.2 20.6,19.2 23.8,40 39.2,40 42,21.7 42.3,19.6     "/></g></g><g><polygon fill="#BFBEBE" points="35.2,40 27.8,40 26.3,19.2 36.7,19.2    "/></g><g><polygon fill="#E8E5E6" points="42.4,53.6 20.6,53.6 23.8,41.7 39.2,41.7    "/></g><g><polygon fill="#BFBEBE" points="36.7,53.6 26.3,53.6 27.8,41.7 35.2,41.7    "/></g><g><rect fill="#C6C5C5" height="1.7" width="11.8" x="25.7" y="40"/></g><g><path d="M32.7,11.2c0.2,0.3,0.2,0.6-0.1,0.8c-0.3,0.1-0.6,0-0.9-0.3c-0.2-0.3-0.2-0.6,0.1-0.8     C32.1,10.8,32.5,11,32.7,11.2z" fill="#F9FAF5"/></g><g opacity="0.25"><polygon fill="#E8E7E7" points="20.6,19.2 40.1,34.4 42.4,19.2    "/></g><g><polygon fill="#A4A4A4" points="25.7,40 37.5,41.7 37.5,40    "/></g><g opacity="0.25"><polygon fill="#E8E7E7" points="23.8,41.7 42.4,53.6 39.2,41.7    "/></g></g></g></svg>