<?xml version="1.0" ?><!DOCTYPE svg  PUBLIC '-//W3C//DTD SVG 1.1//EN'  'http://www.w3.org/Graphics/SVG/1.1/DTD/svg11.dtd'><svg enable-background="new 0 0 1010 1010" id="cup-coffee-hearts" version="1.1" viewBox="0 0 1010 1010" xml:space="preserve" xmlns="http://www.w3.org/2000/svg" xmlns:xlink="http://www.w3.org/1999/xlink"><g id="cup-coffee-hearts-label"><path d="M505,0C226.106,0,0,226.1157,0,504.9805C0,783.8945,226.106,1010,505,1010   c278.875,0,505-226.1055,505-505.0195C1010,226.1157,783.875,0,505,0z" fill="#F6BBBB"/></g><g id="cup-coffee-hearts-cup-coffee-hearts"><g id="cup-coffee-hearts-color"><path d="M286.7158,516.6582l-0.1972-12.5854c0-56.9898,61.9809-67.8794,116.663-77.4859    c51.6045-9.0547,85.4161-17.123,85.4161-45.5488c0-7.8906-3.8467-13.2168-7.5557-18.4048l-12.8711-18.0498l20.4463-1.8149    c0.7495-0.0196,1.5976-0.0591,2.5054-0.0591c6.352,0,17.9712,1.1245,37.2241,6.4311    c139.5156,38.4268,199.5342,84.4097,200.2539,153.6499l0.1875,1.3218l1.1142,12.5459H286.7158z" fill="#FED78F"/><path d="M510.2969,748.1299c-123.2715,0-224.794-96.3643-231.1563-219.3994l-0.6308-12.0723h463.5937    l-0.6308,12.0723C735.1006,651.7656,633.5684,748.1299,510.2969,748.1299L510.2969,748.1299z" fill="#FFFFFF"/></g><path d="M807.665,546.8398c-8.6504-16.7187-26.4238-30.0634-49.9677-37.5293l-4.4482-1.4599   c-2.1992-0.7197-4.4189-0.4834-6.4503,0.2314c-1.5-0.8828-3.1465-1.5234-5.0107-1.5234h-3.5811   c0.2178-0.814,0.5039-1.603,0.5039-2.4858c0-75.3404-62.1191-124.5884-207.7011-164.6675   c-44.8682-12.3633-55.2842-4.4141-58.7163-1.8096c-4.3199,3.2891-6.6973,8.1318-6.6973,13.6357   c0,7.21,3.8467,12.5606,7.2397,17.2803c3.0381,4.2266,5.6617,7.8711,5.6617,12.5264c0,20.5849-29.107,27.1836-77.0523,35.6064   c-55.7075,9.7891-125.0268,21.9707-125.0268,87.4283c0,0.9863,0.0493,1.9721,0.0688,2.9584   c-4.4185,1.0762-7.7622,4.878-7.7622,9.627c0,105.1035,67.4946,194.7012,161.4028,227.8418h-120.707   c-5.5825,0-10.0996,4.5176-10.0996,10.0996c0,5.583,4.5171,10.1006,10.0996,10.1006h427.5146   c5.5821,0,10.0997-4.5176,10.0997-10.1006c0-5.582-4.5176-10.0996-10.0997-10.0996H590.4648   c57.2276-20.2002,104.6309-61.3301,132.9473-114.1973c9.5586,2.6837,18.7305,4.084,27.292,4.084   c28.959,0,51.1709-14.9922,59.8604-42.2246C815.6836,576.0742,814.6875,560.4121,807.665,546.8398z M404.937,436.5439   c46.1011-8.1025,93.7603-16.4765,93.7603-55.5058c0-11.1602-5.4639-18.7647-9.459-24.3179   c-0.7691-1.0747-1.7754-2.4707-2.5049-3.6245c4.7935-0.7202,16.4814-0.3994,38.9111,5.7847   c135.1856,37.2192,192.8662,80.6421,192.8662,145.1924c0,0.8828,0.2862,1.6718,0.503,2.4858h-422.336   c-0.0097-0.8291-0.059-1.6572-0.059-2.4858C296.6187,459.0518,341.5161,447.6846,404.937,436.5439z M510.2969,738.0293   c-118.6851,0-215.8482-93.8779-221.1446-211.2715h442.3086C726.1641,644.1514,628.9912,738.0293,510.2969,738.0293z    M791.3115,586.0166c-10.2773,32.2432-40.9326,30.2021-58.9922,25.8125c11.086-25.7725,17.833-53.8242,19.2627-83.2559   c18.4346,5.8584,31.9864,15.6436,38.1416,27.5479C794.29,564.9492,794.8223,575.0098,791.3115,586.0166z" fill="#313233"/><g><path d="M431.9922,334.4341l-13.4336,11.5303l-35.5772-31.2076c-6.8452-5.957-11.8852-13.7788-14.0649-22.6162    c-1.5684-6.4902-0.8779-10.0805-0.8779-10.0805c1.3315-14.5088,11.9443-26.6607,26.6802-26.6607    c10.9086,0,19.7167,6.5498,23.8398,15.9785c4.0928-9.4287,13.5127-15.9785,24.4409-15.9785    c14.7261,0,25.3584,12.1519,26.69,26.6607c0,0,0.7001,3.5903-0.8877,10.0805" fill="#F05354"/><path d="M418.5586,355.0537c-2.1406,0-4.2813-0.75-5.9971-2.2539l-35.5771-31.2075    c-8.4624-7.3677-14.3115-16.8071-16.8955-27.2769c-1.8936-7.8418-1.2232-12.6748-0.9766-13.9717    c1.6963-19.0214,17.0635-34.0332,35.6065-34.0332c9.1533,0,17.5664,3.4771,23.9184,9.5479    c6.4898-6.0215,15.1304-9.5479,24.3623-9.5479c18.5527,0,33.9199,15.0118,35.7446,34.9209    c0.1182,0.3897,0.7989,5.2476-1.1147,13.0694c-1.1934,4.8818-6.1348,7.8506-10.9878,6.667    c-4.8721-1.1934-7.8608-6.1104-6.6675-10.9873c1.0161-4.1573,0.7495-6.4507,0.7398-6.4756    c-0.917-9.7598-7.2393-19.0161-17.7144-19.0161c-7.0127,0-13.3354,4.1274-16.1069,10.5092    c-1.44,3.3194-4.7046,5.4644-8.3242,5.4693h-0.0098c-3.6104,0-6.8848-2.1353-8.3252-5.4497    c-2.8896-6.5938-8.6895-10.5288-15.5146-10.5288c-10.4649,0-16.7872,9.2563-17.626,18.3999    c-0.0786,0.6259-0.3545,2.9345,0.6611,7.1162c1.667,6.7763,5.543,12.9756,11.1948,17.897l29.6787,26.0293l7.4468-6.396    c3.8071-3.2603,9.5376-2.8457,12.8125,0.9809c3.2744,3.8071,2.8306,9.5479-0.9765,12.8174l-13.4336,11.5303    C422.7798,354.3232,420.6689,355.0537,418.5586,355.0537L418.5586,355.0537z" fill="#313233"/></g><g><path d="M492.4048,313.1294c4.6553-10.5732,15.1792-17.9907,27.4497-17.9907    c16.5107,0,28.4062,13.6806,29.9443,29.955c0,0,0.7697,4.0142-0.9863,11.2935c-2.4258,9.9028-8.127,18.7007-15.7715,25.4175    l-40.6362,34.9951l-39.9068-34.9951c-7.6835-6.7168-13.3452-15.5147-15.7617-25.4175    c-1.7754-7.2793-1.0156-11.2935-1.0156-11.2935c1.5186-16.2744,13.4238-29.955,29.9443-29.955    C477.9551,295.1387,487.7886,302.5562,492.4048,313.1294z" fill="#F05354"/><path d="M492.4048,405.8887c-2.1402,0-4.2808-0.7495-5.9971-2.2539l-39.9067-34.9947    c-9.3506-8.1816-15.791-18.5922-18.5923-30.0981c-2.1401-8.7485-1.312-14.1436-1.1245-15.1397    c1.9136-20.9301,18.6811-37.3525,38.8808-37.3525c10.3467,0,19.8355,4.0981,26.8482,11.21    c7.1802-7.0528,16.935-11.21,27.3413-11.21c20.5049,0,36.8984,16.0625,38.9893,38.1904    c0.0693,0.1333,0.9169,5.5284-1.1934,14.2774c-2.8106,11.4858-9.252,21.8916-18.6123,30.1172l-40.7056,35.0547    C496.626,405.1538,494.5156,405.8887,492.4048,405.8887L492.4048,405.8887z M465.665,304.2275    c-12.3877,0-19.8837,10.9239-20.8901,21.7095c-0.0786,0.6216-0.4145,3.3486,0.7891,8.2949    c1.9233,7.8511,6.3813,15.0171,12.9209,20.7281l33.9692,29.7968l34.6592-29.8418c6.4805-5.6958,10.959-12.8711,12.8721-20.6928    c1.1835-4.917,0.8486-7.6441,0.8378-7.6685c-1.0947-11.3975-8.6005-22.3262-20.9687-22.3262    c-8.2656,0-15.7715,4.9317-19.1348,12.5664c-1.4502,3.2989-4.7148,5.4248-8.3149,5.4248h-0.0103    c-3.6093-0.0048-6.8745-2.1455-8.3242-5.4545C480.6475,308.918,473.7632,304.2275,465.665,304.2275L465.665,304.2275z" fill="#313233"/></g></g></svg>